# xmcd
#
# Track frame offsets: 
#        150
#        21986
#        46458
#        65959
#        84555
#        106862
#        128688
#        145290
#        172761
#        191107
#        212573
#        233605
#        247734
#        267793
#        287144
#        302253
#        324265
#
# Disc length: 4548 seconds
#
# Revision: 0
# Processed by: cddbd v1.5.2PL0 Copyright (c) Steve Scherf et al.
# Submitted via: ExactAudioCopyFreeDBPlugin 1.0
#
DISCID=e511c211
DTITLE=Various Artist - Blues Paradise Best
DYEAR=2012
DGENRE=Blues
TTITLE0=Harley Davidson - Pecwec Bluesgang
TTITLE1=Blistering Blues Band feat. Bill Macpherson - Help The Poor
TTITLE2=Chris Michie - Don Wanna Go
TTITLE3=Jon Tiven Group - The End Of The Blues
TTITLE4=Lazy Poker Blues Band and Jon McDonald - All Your Love
TTITLE5=Rob Tognoni - In the scheme of Thines
TTITLE6=Freddie and The Screamers - Raised On The Blues
TTITLE7=Barry Richman Band - Reflection Avenue
TTITLE8=Kentusky Thunder - Love Is A Gift
TTITLE9=Corey Stevens - Blue Drops Of Rain
TTITLE10=Dana Gilespie - Where The Blues Begins
TTITLE11=Tony Galla - Desire
TTITLE12=Beto Lovato -  Linda Hegra Tejana
TTITLE13=Garry Brooker - Give Me Something To Remember You By
TTITLE14=Hoosier Blues - When You're Someone Else
TTITLE15=Bobby Messano and NBO - Sea Of Hope
TTITLE16=Colin James - Standin' On The Edge
EXTD=
EXTT0=
EXTT1=
EXTT2=
EXTT3=
EXTT4=
EXTT5=
EXTT6=
EXTT7=
EXTT8=
EXTT9=
EXTT10=
EXTT11=
EXTT12=
EXTT13=
EXTT14=
EXTT15=
EXTT16=
PLAYORDER=
